<?xml version="1.0" encoding="UTF-8"?>
<svg id="uuid-7f390f41-fc32-4d92-9139-e86666a471b6" data-name="Layer 2" xmlns="http://www.w3.org/2000/svg" viewBox="0 0 321.38 167.64">
  <g id="uuid-599d3ef5-31b5-4af6-9f6b-52eb8ca0e6b6" data-name="Layer 1">
    <g>
      <path d="M321.04,110.55l-27.1-65.03c-1.73-3.9-4.56-7.08-8.45-8.43-1.29-.45-2.62-.7-4.28-.7s-3.14,.31-4.28,.7c-3.9,1.35-6.73,4.54-8.46,8.44h0c-3.04,7.36-23.67,57.26-23.68,57.28-1.35,3.19-4.51,5.43-8.19,5.44h-.03s-218.73,0-218.74,0c-4.92-.01-8.9-4-8.91-8.93h0V40.85c0-2.47-2-4.46-4.46-4.46s-4.46,2-4.46,4.46H0v58.03C0,108.74,7.99,116.74,17.85,116.74H236.57c7.43,0,13.79-4.53,16.48-10.99,0,0,3.89-9.33,8.53-20.48h39.24l11.97,28.72c.95,2.28,3.56,3.35,5.84,2.4,2.28-.95,3.35-3.56,2.4-5.84Zm-55.91-33.77c5.22-12.52,11.85-28.44,11.88-28.51,.13-.31,.27-.62,.49-.96,.66-1.02,1.83-2.14,3.72-2.14h0c1.89,0,3.06,1.12,3.72,2.14,.22,.34,.36,.65,.49,.96,.03,.07,6.47,15.53,11.88,28.51-11.15,0-19.96,0-32.17,0Z"/>
      <g>
        <g>
          <path d="M67.72,133.71H198.57c1.21,0,2.33-.59,3.03-1.58,1.16-1.64,2.26-3.32,3.3-5.04,.5-.82-.09-1.87-1.05-1.87H62.44c-.96,0-1.54,1.05-1.05,1.87,1.04,1.72,2.14,3.4,3.3,5.04,.7,.98,1.82,1.58,3.03,1.58Z"/>
          <path d="M85.2,150.67h95.89c1.69,0,3.33-.58,4.65-1.64,1.93-1.56,3.79-3.21,5.58-4.93,.72-.69,.22-1.91-.77-1.91H75.75c-1,0-1.49,1.22-.77,1.91,1.79,1.72,3.65,3.37,5.58,4.93,1.31,1.06,2.96,1.64,4.65,1.64Z"/>
          <path d="M133.14,167.64c11.48,0,22.43-2.32,32.4-6.52,1.02-.43,.71-1.96-.4-1.96H101.14c-1.11,0-1.42,1.53-.4,1.96,9.97,4.2,20.92,6.52,32.4,6.52Z"/>
        </g>
        <path d="M216.95,82.82C216.41,37.06,179.03,0,133.14,0S49.88,37.06,49.34,82.82c0,.33-.01,.66-.01,1,0,2.52,.12,5.02,.34,7.48,.21,2.38,.52,4.73,.93,7.05,.15,.83,.88,1.43,1.72,1.43h5.75c.78,0,1.35-.71,1.2-1.48-.45-2.3-.79-4.64-1.03-7.01-.25-2.46-.38-4.96-.38-7.48,0-.33,0-.66,.01-1,.54-41.05,34.09-74.28,75.27-74.28s74.73,33.23,75.27,74.28c0,.33,.01,.66,.01,1,0,2.53-.13,5.02-.38,7.48-.24,2.37-.58,4.71-1.03,7.01-.15,.76,.42,1.48,1.2,1.48h5.75c.84,0,1.58-.6,1.72-1.43,.41-2.32,.72-4.67,.93-7.05,.22-2.47,.34-4.96,.34-7.48,0-.33,0-.66-.01-1Z"/>
      </g>
      <g>
        <g>
          <path d="M94.04,58.48h-1.07c-.27,0-.49,.22-.49,.49v7.87c0,.27-.22,.49-.49,.49h-4.31c-.27,0-.49-.22-.49-.49v-22.79c0-.27,.22-.49,.49-.49h8.93c4.69,0,7.71,3.22,7.71,7.44,0,3.03-1.57,5.38-4.19,6.51-.27,.11-.39,.42-.26,.68l4.23,8.43c.16,.33-.07,.71-.44,.71h-4.73c-.19,0-.36-.11-.44-.28l-3.99-8.29c-.08-.17-.25-.28-.44-.28Zm1.55-4.56c2.18,0,3.35-1.21,3.35-2.88,0-1.78-1.17-2.88-3.35-2.88h-2.63c-.27,0-.49,.22-.49,.49v4.78c0,.27,.22,.49,.49,.49h2.63Z"/>
          <path d="M108.54,66.84v-22.79c0-.27,.22-.49,.49-.49h14.07c.27,0,.49,.22,.49,.49v4.01c0,.27-.22,.49-.49,.49h-8.77c-.27,0-.49,.22-.49,.49v3.54c0,.27,.22,.49,.49,.49h7.87c.27,0,.49,.22,.49,.49v3.67c0,.27-.22,.49-.49,.49h-7.87c-.27,0-.49,.22-.49,.49v3.57c0,.27,.22,.49,.49,.49h8.8c.27,0,.49,.22,.49,.49v4.04c0,.27-.22,.49-.49,.49h-14.1c-.27,0-.49-.22-.49-.49Z"/>
          <path d="M126.81,55.49c0-7.41,5.63-12.44,12.27-12.44s10.01,4.2,10.95,7.56c.07,.25-.08,.51-.33,.59l-4.07,1.28c-.26,.08-.53-.06-.61-.31-.53-1.65-2.13-3.96-5.94-3.96-3.19,0-6.77,2.28-6.77,7.28,0,4.46,3.29,7.04,6.84,7.04,3.79,0,5.49-2.33,6.1-4.03,.09-.24,.35-.37,.59-.3l4.14,1.18c.26,.07,.42,.34,.34,.6-.95,3.27-4.14,7.85-11.18,7.85s-12.34-4.93-12.34-12.34Z"/>
          <path d="M171.53,65.38c-.19-.2-.5-.21-.7-.02-1.58,1.48-3.54,2.43-5.88,2.43-4.69,0-7.34-3.25-7.34-6.54,0-2.92,1.51-4.63,4.06-6.47l-.34-.37c-1.14-1.24-2.48-2.92-2.48-5.06,0-4.06,3.42-6.3,6.74-6.3,3.92,0,6.81,2.52,6.81,6.1,0,2.38-1.61,4.19-3.35,5.47l-.77,.57,2.83,2.98c.19,.2,.51,.21,.71,0l5.13-5.24c.31-.32,.85-.1,.85,.35v4.83c0,.13-.05,.25-.14,.35l-2.87,2.9c-.19,.19-.19,.49,0,.69l4.22,4.45c.3,.31,.07,.83-.36,.83h-5.08c-.14,0-.27-.06-.36-.16l-1.66-1.79Zm-3.66-3.16c.21-.19,.23-.51,.04-.71l-3.36-3.6-.17,.13c-1.11,.81-1.84,1.64-1.84,2.95,0,1.24,1.01,2.45,2.55,2.45,1.03,0,1.93-.44,2.79-1.22Zm-3.09-10.72l.57,.6,.94-.67c.97-.7,1.38-1.51,1.38-2.28,0-1.14-.91-2.01-2.08-2.01-1.01,0-2.01,.64-2.01,2.05,0,.94,.64,1.71,1.21,2.31Z"/>
        </g>
        <g>
          <path d="M86.43,91.71v7.56c0,.27-.22,.49-.49,.49h-4.31c-.27,0-.49-.22-.49-.49v-22.79c0-.27,.22-.49,.49-.49h8.46c4.83,0,8.15,3.19,8.15,7.61s-3.32,7.61-8.15,7.61h-3.16c-.27,0-.49,.22-.49,.49Zm3.12-5.05c2.01,0,3.39-1.17,3.39-3.02s-1.38-3.05-3.39-3.05h-2.59c-.27,0-.49,.22-.49,.49v5.08c0,.27,.22,.49,.49,.49h2.59Z"/>
          <path d="M112.96,94.94h-8.49c-.21,0-.4,.13-.47,.33l-1.48,4.17c-.07,.2-.26,.33-.47,.33h-4.51c-.34,0-.58-.34-.46-.67l8.58-22.79c.07-.19,.26-.32,.46-.32h5.45c.21,0,.39,.13,.46,.32l8.49,22.79c.12,.32-.12,.67-.46,.67h-4.71c-.21,0-.4-.13-.47-.33l-1.48-4.17c-.07-.2-.26-.33-.47-.33Zm-6.4-4.83h4.38c.34,0,.58-.33,.47-.65l-2.16-6.23c-.15-.44-.77-.44-.93,0l-2.21,6.23c-.11,.32,.12,.66,.46,.66Z"/>
          <path d="M130.6,90.92h-1.07c-.27,0-.49,.22-.49,.49v7.87c0,.27-.22,.49-.49,.49h-4.31c-.27,0-.49-.22-.49-.49v-22.79c0-.27,.22-.49,.49-.49h8.93c4.69,0,7.71,3.22,7.71,7.44,0,3.03-1.57,5.38-4.19,6.51-.27,.11-.39,.42-.26,.68l4.23,8.43c.16,.33-.07,.71-.44,.71h-4.73c-.19,0-.36-.11-.44-.28l-3.99-8.29c-.08-.17-.25-.28-.44-.28Zm1.55-4.56c2.18,0,3.35-1.21,3.35-2.88,0-1.78-1.17-2.88-3.35-2.88h-2.63c-.27,0-.49,.22-.49,.49v4.78c0,.27,.22,.49,.49,.49h2.63Z"/>
          <path d="M152.66,90.88l-2.14,2.38c-.08,.09-.13,.21-.13,.33v5.69c0,.27-.22,.49-.49,.49h-4.31c-.27,0-.49-.22-.49-.49v-22.79c0-.27,.22-.49,.49-.49h4.31c.27,0,.49,.22,.49,.49v8.18c0,.46,.57,.67,.87,.32l7.67-8.83c.09-.11,.23-.17,.37-.17h5.64c.43,0,.65,.51,.37,.82l-8.25,9.18c-.15,.17-.17,.42-.04,.61l8.54,12.39c.23,.33,0,.77-.41,.77h-5.41c-.16,0-.32-.08-.41-.21l-5.9-8.62c-.18-.26-.56-.29-.77-.05Z"/>
          <path d="M180.46,83.03c-.26,.07-.53-.08-.61-.34-.34-1.1-1.35-2.5-3.85-2.5-1.98,0-3.25,1.24-3.25,2.55,0,1.14,.7,1.98,2.35,2.28l3.19,.6c4.53,.84,6.87,3.76,6.87,7.14,0,3.72-3.12,7.51-8.79,7.51-6.29,0-9.14-3.9-9.67-7.17-.04-.25,.13-.49,.38-.55l3.9-.94c.27-.07,.54,.11,.6,.38,.37,1.96,1.86,3.59,4.86,3.59,2.08,0,3.35-1.01,3.35-2.48,0-1.21-.97-2.08-2.55-2.38l-3.25-.6c-4.02-.77-6.47-3.45-6.47-6.98,0-4.49,3.96-7.65,8.52-7.65,5.6,0,7.92,3.17,8.58,5.86,.06,.26-.08,.53-.34,.6l-3.82,1.08Z"/>
        </g>
      </g>
    </g>
  </g>
</svg>