<svg id="visual" viewBox="0 0 675 900" width="675" height="900" xmlns="http://www.w3.org/2000/svg" xmlns:xlink="http://www.w3.org/1999/xlink" version="1.1"><path d="M0 28L9.3 28C18.7 28 37.3 28 56.2 29.5C75 31 94 34 112.8 35.5C131.7 37 150.3 37 169 37C187.7 37 206.3 37 225 37C243.7 37 262.3 37 281.2 37C300 37 319 37 337.8 37C356.7 37 375.3 37 394 37C412.7 37 431.3 37 450 35.5C468.7 34 487.3 31 506.2 31C525 31 544 34 562.8 35.5C581.7 37 600.3 37 619 37C637.7 37 656.3 37 665.7 37L675 37L675 0L665.7 0C656.3 0 637.7 0 619 0C600.3 0 581.7 0 562.8 0C544 0 525 0 506.2 0C487.3 0 468.7 0 450 0C431.3 0 412.7 0 394 0C375.3 0 356.7 0 337.8 0C319 0 300 0 281.2 0C262.3 0 243.7 0 225 0C206.3 0 187.7 0 169 0C150.3 0 131.7 0 112.8 0C94 0 75 0 56.2 0C37.3 0 18.7 0 9.3 0L0 0Z" fill="#ffffff"></path><path d="M0 127L9.3 122.5C18.7 118 37.3 109 56.2 104.5C75 100 94 100 112.8 98.5C131.7 97 150.3 94 169 98.5C187.7 103 206.3 115 225 116.5C243.7 118 262.3 109 281.2 106C300 103 319 106 337.8 104.5C356.7 103 375.3 97 394 98.5C412.7 100 431.3 109 450 115C468.7 121 487.3 124 506.2 124C525 124 544 121 562.8 119.5C581.7 118 600.3 118 619 118C637.7 118 656.3 118 665.7 118L675 118L675 35L665.7 35C656.3 35 637.7 35 619 35C600.3 35 581.7 35 562.8 33.5C544 32 525 29 506.2 29C487.3 29 468.7 32 450 33.5C431.3 35 412.7 35 394 35C375.3 35 356.7 35 337.8 35C319 35 300 35 281.2 35C262.3 35 243.7 35 225 35C206.3 35 187.7 35 169 35C150.3 35 131.7 35 112.8 33.5C94 32 75 29 56.2 27.5C37.3 26 18.7 26 9.3 26L0 26Z" fill="#f8f7ff"></path><path d="M0 163L9.3 161.5C18.7 160 37.3 157 56.2 152.5C75 148 94 142 112.8 139C131.7 136 150.3 136 169 143.5C187.7 151 206.3 166 225 166C243.7 166 262.3 151 281.2 145C300 139 319 142 337.8 143.5C356.7 145 375.3 145 394 149.5C412.7 154 431.3 163 450 166C468.7 169 487.3 166 506.2 163C525 160 544 157 562.8 158.5C581.7 160 600.3 166 619 167.5C637.7 169 656.3 166 665.7 164.5L675 163L675 116L665.7 116C656.3 116 637.7 116 619 116C600.3 116 581.7 116 562.8 117.5C544 119 525 122 506.2 122C487.3 122 468.7 119 450 113C431.3 107 412.7 98 394 96.5C375.3 95 356.7 101 337.8 102.5C319 104 300 101 281.2 104C262.3 107 243.7 116 225 114.5C206.3 113 187.7 101 169 96.5C150.3 92 131.7 95 112.8 96.5C94 98 75 98 56.2 102.5C37.3 107 18.7 116 9.3 120.5L0 125Z" fill="#f0f0ff"></path><path d="M0 217L9.3 217C18.7 217 37.3 217 56.2 209.5C75 202 94 187 112.8 184C131.7 181 150.3 190 169 199C187.7 208 206.3 217 225 214C243.7 211 262.3 196 281.2 193C300 190 319 199 337.8 203.5C356.7 208 375.3 208 394 208C412.7 208 431.3 208 450 208C468.7 208 487.3 208 506.2 208C525 208 544 208 562.8 211C581.7 214 600.3 220 619 218.5C637.7 217 656.3 208 665.7 203.5L675 199L675 161L665.7 162.5C656.3 164 637.7 167 619 165.5C600.3 164 581.7 158 562.8 156.5C544 155 525 158 506.2 161C487.3 164 468.7 167 450 164C431.3 161 412.7 152 394 147.5C375.3 143 356.7 143 337.8 141.5C319 140 300 137 281.2 143C262.3 149 243.7 164 225 164C206.3 164 187.7 149 169 141.5C150.3 134 131.7 134 112.8 137C94 140 75 146 56.2 150.5C37.3 155 18.7 158 9.3 159.5L0 161Z" fill="#e9e8ff"></path><path d="M0 271L9.3 269.5C18.7 268 37.3 265 56.2 259C75 253 94 244 112.8 242.5C131.7 241 150.3 247 169 256C187.7 265 206.3 277 225 274C243.7 271 262.3 253 281.2 250C300 247 319 259 337.8 266.5C356.7 274 375.3 277 394 277C412.7 277 431.3 274 450 271C468.7 268 487.3 265 506.2 262C525 259 544 256 562.8 260.5C581.7 265 600.3 277 619 275.5C637.7 274 656.3 259 665.7 251.5L675 244L675 197L665.7 201.5C656.3 206 637.7 215 619 216.5C600.3 218 581.7 212 562.8 209C544 206 525 206 506.2 206C487.3 206 468.7 206 450 206C431.3 206 412.7 206 394 206C375.3 206 356.7 206 337.8 201.5C319 197 300 188 281.2 191C262.3 194 243.7 209 225 212C206.3 215 187.7 206 169 197C150.3 188 131.7 179 112.8 182C94 185 75 200 56.2 207.5C37.3 215 18.7 215 9.3 215L0 215Z" fill="#e1e1ff"></path><path d="M0 478L9.3 467.5C18.7 457 37.3 436 56.2 422.5C75 409 94 403 112.8 413.5C131.7 424 150.3 451 169 463C187.7 475 206.3 472 225 452.5C243.7 433 262.3 397 281.2 386.5C300 376 319 391 337.8 407.5C356.7 424 375.3 442 394 448C412.7 454 431.3 448 450 449.5C468.7 451 487.3 460 506.2 448C525 436 544 403 562.8 401.5C581.7 400 600.3 430 619 433C637.7 436 656.3 412 665.7 400L675 388L675 242L665.7 249.5C656.3 257 637.7 272 619 273.5C600.3 275 581.7 263 562.8 258.5C544 254 525 257 506.2 260C487.3 263 468.7 266 450 269C431.3 272 412.7 275 394 275C375.3 275 356.7 272 337.8 264.5C319 257 300 245 281.2 248C262.3 251 243.7 269 225 272C206.3 275 187.7 263 169 254C150.3 245 131.7 239 112.8 240.5C94 242 75 251 56.2 257C37.3 263 18.7 266 9.3 267.5L0 269Z" fill="#dadaff"></path><path d="M0 604L9.3 602.5C18.7 601 37.3 598 56.2 601C75 604 94 613 112.8 620.5C131.7 628 150.3 634 169 638.5C187.7 643 206.3 646 225 637C243.7 628 262.3 607 281.2 607C300 607 319 628 337.8 631C356.7 634 375.3 619 394 611.5C412.7 604 431.3 604 450 604C468.7 604 487.3 604 506.2 604C525 604 544 604 562.8 611.5C581.7 619 600.3 634 619 632.5C637.7 631 656.3 613 665.7 604L675 595L675 386L665.7 398C656.3 410 637.7 434 619 431C600.3 428 581.7 398 562.8 399.5C544 401 525 434 506.2 446C487.3 458 468.7 449 450 447.5C431.3 446 412.7 452 394 446C375.3 440 356.7 422 337.8 405.5C319 389 300 374 281.2 384.5C262.3 395 243.7 431 225 450.5C206.3 470 187.7 473 169 461C150.3 449 131.7 422 112.8 411.5C94 401 75 407 56.2 420.5C37.3 434 18.7 455 9.3 465.5L0 476Z" fill="#d2d2ff"></path><path d="M0 631L9.3 631C18.7 631 37.3 631 56.2 635.5C75 640 94 649 112.8 656.5C131.7 664 150.3 670 169 677.5C187.7 685 206.3 694 225 688C243.7 682 262.3 661 281.2 659.5C300 658 319 676 337.8 679C356.7 682 375.3 670 394 664C412.7 658 431.3 658 450 655C468.7 652 487.3 646 506.2 644.5C525 643 544 646 562.8 656.5C581.7 667 600.3 685 619 680.5C637.7 676 656.3 649 665.7 635.5L675 622L675 593L665.7 602C656.3 611 637.7 629 619 630.5C600.3 632 581.7 617 562.8 609.5C544 602 525 602 506.2 602C487.3 602 468.7 602 450 602C431.3 602 412.7 602 394 609.5C375.3 617 356.7 632 337.8 629C319 626 300 605 281.2 605C262.3 605 243.7 626 225 635C206.3 644 187.7 641 169 636.5C150.3 632 131.7 626 112.8 618.5C94 611 75 602 56.2 599C37.3 596 18.7 599 9.3 600.5L0 602Z" fill="#cacbff"></path><path d="M0 694L9.3 695.5C18.7 697 37.3 700 56.2 704.5C75 709 94 715 112.8 724C131.7 733 150.3 745 169 749.5C187.7 754 206.3 751 225 742C243.7 733 262.3 718 281.2 718C300 718 319 733 337.8 739C356.7 745 375.3 742 394 740.5C412.7 739 431.3 739 450 734.5C468.7 730 487.3 721 506.2 719.5C525 718 544 724 562.8 733C581.7 742 600.3 754 619 748C637.7 742 656.3 718 665.7 706L675 694L675 620L665.7 633.5C656.3 647 637.7 674 619 678.5C600.3 683 581.7 665 562.8 654.5C544 644 525 641 506.2 642.5C487.3 644 468.7 650 450 653C431.3 656 412.7 656 394 662C375.3 668 356.7 680 337.8 677C319 674 300 656 281.2 657.5C262.3 659 243.7 680 225 686C206.3 692 187.7 683 169 675.5C150.3 668 131.7 662 112.8 654.5C94 647 75 638 56.2 633.5C37.3 629 18.7 629 9.3 629L0 629Z" fill="#c3c4ff"></path><path d="M0 730L9.3 731.5C18.7 733 37.3 736 56.2 740.5C75 745 94 751 112.8 758.5C131.7 766 150.3 775 169 779.5C187.7 784 206.3 784 225 775C243.7 766 262.3 748 281.2 748C300 748 319 766 337.8 773.5C356.7 781 375.3 778 394 778C412.7 778 431.3 781 450 776.5C468.7 772 487.3 760 506.2 758.5C525 757 544 766 562.8 773.5C581.7 781 600.3 787 619 778C637.7 769 656.3 745 665.7 733L675 721L675 692L665.7 704C656.3 716 637.7 740 619 746C600.3 752 581.7 740 562.8 731C544 722 525 716 506.2 717.5C487.3 719 468.7 728 450 732.5C431.3 737 412.7 737 394 738.5C375.3 740 356.7 743 337.8 737C319 731 300 716 281.2 716C262.3 716 243.7 731 225 740C206.3 749 187.7 752 169 747.5C150.3 743 131.7 731 112.8 722C94 713 75 707 56.2 702.5C37.3 698 18.7 695 9.3 693.5L0 692Z" fill="#bbbdff"></path><path d="M0 775L9.3 773.5C18.7 772 37.3 769 56.2 770.5C75 772 94 778 112.8 787C131.7 796 150.3 808 169 815.5C187.7 823 206.3 826 225 817C243.7 808 262.3 787 281.2 787C300 787 319 808 337.8 814C356.7 820 375.3 811 394 808C412.7 805 431.3 808 450 805C468.7 802 487.3 793 506.2 794.5C525 796 544 808 562.8 815.5C581.7 823 600.3 826 619 815.5C637.7 805 656.3 781 665.7 769L675 757L675 719L665.7 731C656.3 743 637.7 767 619 776C600.3 785 581.7 779 562.8 771.5C544 764 525 755 506.2 756.5C487.3 758 468.7 770 450 774.5C431.3 779 412.7 776 394 776C375.3 776 356.7 779 337.8 771.5C319 764 300 746 281.2 746C262.3 746 243.7 764 225 773C206.3 782 187.7 782 169 777.5C150.3 773 131.7 764 112.8 756.5C94 749 75 743 56.2 738.5C37.3 734 18.7 731 9.3 729.5L0 728Z" fill="#b2b6ff"></path><path d="M0 901L9.3 901C18.7 901 37.3 901 56.2 901C75 901 94 901 112.8 901C131.7 901 150.3 901 169 901C187.7 901 206.3 901 225 901C243.7 901 262.3 901 281.2 901C300 901 319 901 337.8 901C356.7 901 375.3 901 394 901C412.7 901 431.3 901 450 901C468.7 901 487.3 901 506.2 901C525 901 544 901 562.8 901C581.7 901 600.3 901 619 901C637.7 901 656.3 901 665.7 901L675 901L675 755L665.7 767C656.3 779 637.7 803 619 813.5C600.3 824 581.7 821 562.8 813.5C544 806 525 794 506.2 792.5C487.3 791 468.7 800 450 803C431.3 806 412.7 803 394 806C375.3 809 356.7 818 337.8 812C319 806 300 785 281.2 785C262.3 785 243.7 806 225 815C206.3 824 187.7 821 169 813.5C150.3 806 131.7 794 112.8 785C94 776 75 770 56.2 768.5C37.3 767 18.7 770 9.3 771.5L0 773Z" fill="#aaafff"></path></svg>